# File created by Blade
# Date/Time:  Tue Sep 30 19:08:00 2014
#---------------------------------------------------------
:version 1.10
:name HOM
:units
  mass 1.0
  length 1.000000
  angle deg
:documentation
     Acclaim Skeleton File
:root
   axis xyz
   order TX TY TZ RX RY RZ
   position 0.000000 0.000000 0.000000
   orientation 0 0 0
:bonedata
   begin
      id 1
      name Spine_dum
      direction 0.000000 1.000000 0.000000
      length 7.508948
      axis 0.0 0.0 0.0 xyz
   end
   begin
      id 2
      name LeftUpLeg_dum
      direction 1.000000 0.000000 0.000000
      length 3.000560
      axis 0.0 0.0 0.0 xyz
   end
   begin
      id 3
      name RightUpLeg_dum
      direction -1.000000 0.000000 0.000000
      length 3.000560
      axis 0.0 0.0 0.0 xyz
   end
   begin
      id 4
      name Spine
      direction 0.000000 1.000000 0.000000
      length 0.000000
      axis 0.0 0.0 0.0 xyz
      dof rx ry rz
   end
   begin
      id 5
      name Spine_dum1
      direction 0.000000 1.000000 0.000000
      length 13.861154
      axis 0.0 0.0 0.0 xyz
   end
   begin
      id 6
      name Spine_dum2
      direction 0.000000 1.000000 0.000000
      length 8.204781
      axis 0.0 0.0 0.0 xyz
   end
   begin
      id 7
      name Spine_dum3
      direction 0.000000 1.000000 0.000000
      length 8.204781
      axis 0.0 0.0 0.0 xyz
   end
   begin
      id 8
      name Head
      direction 0.000000 1.000000 0.000000
      length 4.527550
      axis 0.0 0.0 0.0 xyz
      dof rx ry rz
   end
   begin
      id 9
      name LeftShoulder
      direction 1.000000 0.000000 0.000000
      length 6.635956
      axis 0.0 0.0 -90.0 xyz
      dof rx ry rz
   end
   begin
      id 10
      name LeftArm
      direction 1.000000 0.000000 0.000000
      length 10.274218
      axis 0.0 0.0 -90.0 xyz
      dof rx ry rz
   end
   begin
      id 11
      name LeftForeArm
      direction 1.000000 0.000000 0.000000
      length 8.522147
      axis 0.0 0.0 -90.0 xyz
      dof ry rz rx
   end
   begin
      id 12
      name LeftHand
      direction 0.000000 0.000000 0.000000
      length 0.000000
      axis 0.0 0.0 -90.0 xyz
      dof rx ry rz
   end
   begin
      id 13
      name LeftHand_dum1
      direction 0.000000 0.000000 0.000000
      length 0.000000
      axis 0.0 0.0 -90.0 xyz
   end
   begin
      id 14
      name LeftHand_dum2
      direction 1.000000 0.000000 0.000000
      length 3.937000
      axis 0.0 0.0 -90.0 xyz
   end
   begin
      id 15
      name LeftHandThumb1
      direction 0.000000 0.000000 1.000000
      length 3.937000
      axis 0.0 0.0 -90.0 xyz
      dof rx rz ry
   end
   begin
      id 16
      name RightShoulder
      direction -1.000000 0.000000 0.000000
      length 6.635956
      axis 0.0 0.0 90.0 xyz
      dof rx ry rz
   end
   begin
      id 17
      name RightArm
      direction -1.000000 0.000000 0.000000
      length 10.274218
      axis 0.0 0.0 90.0 xyz
      dof rx ry rz
   end
   begin
      id 18
      name RightForeArm
      direction -1.000000 0.000000 0.000000
      length 8.522147
      axis 0.0 0.0 90.0 xyz
      dof ry rz rx
   end
   begin
      id 19
      name RightHand
      direction 0.000000 0.000000 0.000000
      length 0.000000
      axis 0.0 0.0 90.0 xyz
      dof rx ry rz
   end
   begin
      id 20
      name RightHand_dum1
      direction 0.000000 0.000000 0.000000
      length 0.000000
      axis 0.0 0.0 90.0 xyz
   end
   begin
      id 21
      name RightHand_dum2
      direction -1.000000 0.000000 0.000000
      length 3.937000
      axis 0.0 0.0 90.0 xyz
   end
   begin
      id 22
      name RightHandThumb1
      direction 0.000000 0.000000 1.000000
      length 3.937000
      axis 0.0 0.0 90.0 xyz
      dof rx rz ry
   end
   begin
      id 23
      name LeftUpLeg
      direction 0.000000 -1.000000 0.000000
      length 16.490845
      axis 0.0 0.0 0.0 xyz
      dof rx ry rz
   end
   begin
      id 24
      name LeftLeg
      direction 0.000000 -1.000000 0.000000
      length 14.556576
      axis 0.0 0.0 0.0 xyz
      dof rx ry rz
   end
   begin
      id 25
      name LeftFoot
      direction 0.000000 -0.258819 0.965926
      length 4.831116
      axis 15.0 0.0 0.0 xyz
      dof rx ry rz
   end
   begin
      id 26
      name LeftToeBase
      direction 0.000000 0.000000 1.000000
      length 2.952750
      axis 0.0 0.0 0.0 xyz
      dof rx ry rz
   end
   begin
      id 27
      name RightUpLeg
      direction 0.000000 -1.000000 0.000000
      length 16.490845
      axis 0.0 0.0 0.0 xyz
      dof rx ry rz
   end
   begin
      id 28
      name RightLeg
      direction 0.000000 -1.000000 0.000000
      length 14.556576
      axis 0.0 0.0 0.0 xyz
      dof rx ry rz
   end
   begin
      id 29
      name RightFoot
      direction 0.000000 -0.258819 0.965926
      length 4.831116
      axis 15.0 0.0 0.0 xyz
      dof rx ry rz
   end
   begin
      id 30
      name RightToeBase
      direction 0.000000 0.000000 1.000000
      length 2.952750
      axis 0.0 0.0 0.0 xyz
      dof rx ry rz
   end
:hierarchy
   begin
      root Spine_dum LeftUpLeg_dum RightUpLeg_dum
      Spine_dum Spine
      LeftUpLeg_dum LeftUpLeg
      RightUpLeg_dum RightUpLeg
      Spine Spine_dum1 Spine_dum2 Spine_dum3
      Spine_dum1 Head
      Spine_dum2 LeftShoulder
      Spine_dum3 RightShoulder
      LeftShoulder LeftArm
      LeftArm LeftForeArm
      LeftForeArm LeftHand
      LeftHand LeftHand_dum1 LeftHand_dum2
      LeftHand_dum1 LeftHandThumb1
      RightShoulder RightArm
      RightArm RightForeArm
      RightForeArm RightHand
      RightHand RightHand_dum1 RightHand_dum2
      RightHand_dum1 RightHandThumb1
      LeftUpLeg LeftLeg
      LeftLeg LeftFoot
      LeftFoot LeftToeBase
      RightUpLeg RightLeg
      RightLeg RightFoot
      RightFoot RightToeBase
   end

# File created by Blade
# Date/Time:  Thu Sep 25 19:43:58 2014
# Frame Rate: 120.000 fps
#------------------------------------------------------
:FULLY-SPECIFIED
:DEGREES
88
root -3.426126 32.950676 -2.344144 12.117283 1.452401 -1.002186
Spine -13.977901 4.468210 0.488268
Head -9.844962 -5.413227 8.583791
LeftShoulder -15.191419 16.573369 26.185113
LeftArm 17.288976 -24.139107 -27.731043
LeftForeArm 12.185409 -0.000000 12.964795
LeftHand -24.725190 -0.000000 -10.284951
LeftHandThumb1 -26.253704 0.000000 33.147579
RightShoulder -22.014144 15.521838 -39.031656
RightArm -1.791600 9.049307 25.223324
RightForeArm -29.893459 -0.000000 14.687957
RightHand -10.194594 -0.000000 13.717937
RightHandThumb1 -24.326973 -0.000000 -32.862282
LeftUpLeg -6.285109 6.168323 1.234884
LeftLeg -1.154699 -0.000000 0.000000
LeftFoot -10.523919 6.016249 -15.082336
LeftToeBase 10.089615 -0.000000 -0.000000
RightUpLeg -8.015036 -3.228495 1.129323
RightLeg 1.712761 -0.000000 -0.000000
RightFoot -8.879778 -5.633449 2.030845
RightToeBase 1.268303 -0.000000 -0.000000
89
root -3.430599 32.951009 -2.345025 12.120399 1.470628 -0.995214
Spine -13.964652 4.474227 0.493151
Head -9.842483 -5.340163 8.630996
LeftShoulder -15.178070 16.570653 26.173271
LeftArm 17.290326 -24.128786 -27.721819
LeftForeArm 12.166143 -0.000000 12.949923
LeftHand -24.699994 0.000000 -10.269803
LeftHandThumb1 -26.253704 0.000000 33.147579
RightShoulder -22.011553 15.518309 -39.032544
RightArm -1.818531 9.072975 25.231963
RightForeArm -29.946136 -0.000000 14.743142
RightHand -10.232689 0.000000 13.682342
RightHandThumb1 -24.326973 -0.000000 -32.862282
LeftUpLeg -6.291154 6.166632 1.239715
LeftLeg -1.165431 -0.000000 0.000000
LeftFoot -10.566639 6.014054 -15.266276
LeftToeBase 10.277714 -0.000000 -0.000000
RightUpLeg -8.020615 -3.242082 1.134586
RightLeg 1.718609 -0.000000 -0.000000
RightFoot -8.878677 -5.651081 2.009630
RightToeBase 1.274126 -0.000000 -0.000000
90
root -3.434956 32.951585 -2.345151 12.124968 1.485509 -0.991553
Spine -13.956652 4.467913 0.501885
Head -9.831155 -5.326562 8.618475
LeftShoulder -15.172093 16.534815 26.171895
LeftArm 17.264990 -24.097872 -27.707595
LeftForeArm 12.162031 -0.000000 12.948783
LeftHand -24.717052 -0.000000 -10.289990
LeftHandThumb1 -26.253704 0.000000 33.147579
RightShoulder -22.004782 15.523679 -39.034521
RightArm -1.807819 9.060789 25.237909
RightForeArm -29.935776 -0.000000 14.729922
RightHand -10.201028 0.000000 13.707341
RightHandThumb1 -24.326973 -0.000000 -32.862282
LeftUpLeg -6.298850 6.185188 1.244616
LeftLeg -1.164715 -0.000000 0.000000
LeftFoot -10.563877 5.970141 -15.326534
LeftToeBase 10.330201 -0.000000 -0.000000
RightUpLeg -8.024800 -3.249544 1.140353
RightLeg 1.719201 -0.000000 -0.000000
RightFoot -8.870066 -5.649836 2.017561
RightToeBase 1.218861 -0.000000 -0.000000
91
root -3.439435 32.952035 -2.345461 12.129523 1.498761 -0.986496
Spine -13.949655 4.475134 0.506240
Head -9.817181 -5.350488 8.587294
LeftShoulder -15.148996 16.520401 26.171249
LeftArm 17.243357 -24.086454 -27.700028
LeftForeArm 12.152442 -0.000000 12.950954
LeftHand -24.703618 -0.000000 -10.279477
LeftHandThumb1 -26.253704 0.000000 33.147579
RightShoulder -22.004824 15.535192 -39.046705
RightArm -1.810225 9.055854 25.246535
RightForeArm -29.928066 -0.000000 14.716453
RightHand -10.151828 0.000000 13.703261
RightHandThumb1 -24.326973 -0.000000 -32.862282
LeftUpLeg -6.308799 6.198646 1.247032
LeftLeg -1.160098 -0.000000 0.000000
LeftFoot -10.547681 5.954683 -15.337958
LeftToeBase 10.314833 -0.000000 -0.000000
RightUpLeg -8.030091 -3.264716 1.147049
RightLeg 1.720329 -0.000000 -0.000000
RightFoot -8.872286 -5.661210 2.008455
RightToeBase 1.275213 -0.000000 -0.000000
92
root -3.443461 32.952261 -2.346541 12.133797 1.516294 -0.980093
Spine -13.938852 4.468462 0.512984
Head -9.809838 -5.329694 8.567100
LeftShoulder -15.141615 16.505764 26.170678
LeftArm 17.229452 -24.057942 -27.691939
LeftForeArm 12.135693 -0.000000 12.950306
LeftHand -24.699297 0.000000 -10.273315
LeftHandThumb1 -26.253704 0.000000 33.147579
RightShoulder -22.011936 15.500192 -39.042177
RightArm -1.741222 9.054402 25.270905
RightForeArm -29.838976 -0.000000 14.656504
RightHand -10.138984 -0.000000 13.665615
RightHandThumb1 -24.326973 -0.000000 -32.862282
LeftUpLeg -6.323660 6.175285 1.249114
LeftLeg -1.137009 -0.000000 0.000000
LeftFoot -10.492987 5.951754 -15.178267
LeftToeBase 10.095436 -0.000000 -0.000000
RightUpLeg -8.032855 -3.260804 1.147983
RightLeg 1.718740 -0.000000 -0.000000
RightFoot -8.875476 -5.681333 2.016437
RightToeBase 1.251174 -0.000000 -0.000000
